<svg width="24" height="18" viewBox="0 0 24 18" fill="none" xmlns="http://www.w3.org/2000/svg">
<rect width="24" height="17.1429" rx="2" fill="white"/>
<mask id="mask0_0_844" style="mask-type:luminance" maskUnits="userSpaceOnUse" x="0" y="0" width="24" height="18">
<rect width="24" height="17.1429" rx="2" fill="white"/>
</mask>
<g mask="url(#mask0_0_844)">
<path fill-rule="evenodd" clip-rule="evenodd" d="M24 0H0V1.14286H24V0ZM24 2.28571H0V3.42857H24V2.28571ZM0 4.57143H24V5.71429H0V4.57143ZM24 6.85714H0V8H24V6.85714ZM0 9.14286H24V10.2857H0V9.14286ZM24 11.4286H0V12.5714H24V11.4286ZM0 13.7143H24V14.8571H0V13.7143ZM24 16H0V17.1429H24V16Z" fill="#D02F44"/>
<rect width="10.2857" height="8" fill="#46467F"/>
<g filter="url(#filter0_d_0_844)">
<path fill-rule="evenodd" clip-rule="evenodd" d="M2.28544 1.71401C2.28544 2.0296 2.0296 2.28544 1.71401 2.28544C1.39842 2.28544 1.14258 2.0296 1.14258 1.71401C1.14258 1.39842 1.39842 1.14258 1.71401 1.14258C2.0296 1.14258 2.28544 1.39842 2.28544 1.71401ZM4.57115 1.71401C4.57115 2.0296 4.31531 2.28544 3.99972 2.28544C3.68413 2.28544 3.42829 2.0296 3.42829 1.71401C3.42829 1.39842 3.68413 1.14258 3.99972 1.14258C4.31531 1.14258 4.57115 1.39842 4.57115 1.71401ZM6.28544 2.28544C6.60103 2.28544 6.85686 2.0296 6.85686 1.71401C6.85686 1.39842 6.60103 1.14258 6.28544 1.14258C5.96984 1.14258 5.71401 1.39842 5.71401 1.71401C5.71401 2.0296 5.96984 2.28544 6.28544 2.28544ZM9.14258 1.71401C9.14258 2.0296 8.88674 2.28544 8.57115 2.28544C8.25556 2.28544 7.99972 2.0296 7.99972 1.71401C7.99972 1.39842 8.25556 1.14258 8.57115 1.14258C8.88674 1.14258 9.14258 1.39842 9.14258 1.71401ZM2.85686 3.42829C3.17246 3.42829 3.42829 3.17246 3.42829 2.85686C3.42829 2.54127 3.17246 2.28544 2.85686 2.28544C2.54127 2.28544 2.28544 2.54127 2.28544 2.85686C2.28544 3.17246 2.54127 3.42829 2.85686 3.42829ZM5.71401 2.85686C5.71401 3.17246 5.45817 3.42829 5.14258 3.42829C4.82699 3.42829 4.57115 3.17246 4.57115 2.85686C4.57115 2.54127 4.82699 2.28544 5.14258 2.28544C5.45817 2.28544 5.71401 2.54127 5.71401 2.85686ZM7.42829 3.42829C7.74388 3.42829 7.99972 3.17246 7.99972 2.85686C7.99972 2.54127 7.74388 2.28544 7.42829 2.28544C7.1127 2.28544 6.85686 2.54127 6.85686 2.85686C6.85686 3.17246 7.1127 3.42829 7.42829 3.42829ZM9.14258 3.99972C9.14258 4.31531 8.88674 4.57115 8.57115 4.57115C8.25556 4.57115 7.99972 4.31531 7.99972 3.99972C7.99972 3.68413 8.25556 3.42829 8.57115 3.42829C8.88674 3.42829 9.14258 3.68413 9.14258 3.99972ZM6.28544 4.57115C6.60103 4.57115 6.85686 4.31531 6.85686 3.99972C6.85686 3.68413 6.60103 3.42829 6.28544 3.42829C5.96984 3.42829 5.71401 3.68413 5.71401 3.99972C5.71401 4.31531 5.96984 4.57115 6.28544 4.57115ZM4.57115 3.99972C4.57115 4.31531 4.31531 4.57115 3.99972 4.57115C3.68413 4.57115 3.42829 4.31531 3.42829 3.99972C3.42829 3.68413 3.68413 3.42829 3.99972 3.42829C4.31531 3.42829 4.57115 3.68413 4.57115 3.99972ZM1.71401 4.57115C2.0296 4.57115 2.28544 4.31531 2.28544 3.99972C2.28544 3.68413 2.0296 3.42829 1.71401 3.42829C1.39842 3.42829 1.14258 3.68413 1.14258 3.99972C1.14258 4.31531 1.39842 4.57115 1.71401 4.57115ZM3.42829 5.14258C3.42829 5.45817 3.17246 5.71401 2.85686 5.71401C2.54127 5.71401 2.28544 5.45817 2.28544 5.14258C2.28544 4.82699 2.54127 4.57115 2.85686 4.57115C3.17246 4.57115 3.42829 4.82699 3.42829 5.14258ZM5.14258 5.71401C5.45817 5.71401 5.71401 5.45817 5.71401 5.14258C5.71401 4.82699 5.45817 4.57115 5.14258 4.57115C4.82699 4.57115 4.57115 4.82699 4.57115 5.14258C4.57115 5.45817 4.82699 5.71401 5.14258 5.71401ZM7.99972 5.14258C7.99972 5.45817 7.74388 5.71401 7.42829 5.71401C7.1127 5.71401 6.85686 5.45817 6.85686 5.14258C6.85686 4.82699 7.1127 4.57115 7.42829 4.57115C7.74388 4.57115 7.99972 4.82699 7.99972 5.14258ZM8.57115 6.85686C8.88674 6.85686 9.14258 6.60103 9.14258 6.28544C9.14258 5.96984 8.88674 5.71401 8.57115 5.71401C8.25556 5.71401 7.99972 5.96984 7.99972 6.28544C7.99972 6.60103 8.25556 6.85686 8.57115 6.85686ZM6.85686 6.28544C6.85686 6.60103 6.60103 6.85686 6.28544 6.85686C5.96984 6.85686 5.71401 6.60103 5.71401 6.28544C5.71401 5.96984 5.96984 5.71401 6.28544 5.71401C6.60103 5.71401 6.85686 5.96984 6.85686 6.28544ZM3.99972 6.85686C4.31531 6.85686 4.57115 6.60103 4.57115 6.28544C4.57115 5.96984 4.31531 5.71401 3.99972 5.71401C3.68413 5.71401 3.42829 5.96984 3.42829 6.28544C3.42829 6.60103 3.68413 6.85686 3.99972 6.85686ZM2.28544 6.28544C2.28544 6.60103 2.0296 6.85686 1.71401 6.85686C1.39842 6.85686 1.14258 6.60103 1.14258 6.28544C1.14258 5.96984 1.39842 5.71401 1.71401 5.71401C2.0296 5.71401 2.28544 5.96984 2.28544 6.28544Z" fill="url(#paint0_linear_0_844)"/>
</g>
</g>
<defs>
<filter id="filter0_d_0_844" x="1.14258" y="1.14258" width="8" height="6.71387" filterUnits="userSpaceOnUse" color-interpolation-filters="sRGB">
<feFlood flood-opacity="0" result="BackgroundImageFix"/>
<feColorMatrix in="SourceAlpha" type="matrix" values="0 0 0 0 0 0 0 0 0 0 0 0 0 0 0 0 0 0 127 0" result="hardAlpha"/>
<feOffset dy="1"/>
<feColorMatrix type="matrix" values="0 0 0 0 0 0 0 0 0 0 0 0 0 0 0 0 0 0 0.06 0"/>
<feBlend mode="normal" in2="BackgroundImageFix" result="effect1_dropShadow_0_844"/>
<feBlend mode="normal" in="SourceGraphic" in2="effect1_dropShadow_0_844" result="shape"/>
</filter>
<linearGradient id="paint0_linear_0_844" x1="1.14258" y1="1.14258" x2="1.14258" y2="6.85686" gradientUnits="userSpaceOnUse">
<stop stop-color="white"/>
<stop offset="1" stop-color="#F0F0F0"/>
</linearGradient>
</defs>
</svg>
