<svg width="69" height="17" viewBox="0 0 69 17" fill="none" xmlns="http://www.w3.org/2000/svg">
<path fill-rule="evenodd" clip-rule="evenodd" d="M8.66894 3.00237C7.63616 3.00237 6.70849 3.22172 5.91334 3.65128L5.91792 3.64214C5.12277 4.07171 4.4967 4.67492 4.04886 5.44722C3.60102 6.21952 3.37253 7.14262 3.37253 8.11599C3.37253 9.08937 3.60102 9.97134 4.04886 10.7436C4.4967 11.5159 5.12277 12.1283 5.91792 12.5716C6.71306 13.0148 7.6316 13.2388 8.6461 13.2388C9.73371 13.2388 10.7071 13.0103 11.5388 12.5579V10.0125H8.45873V7.11064H14.7285V7.691H14.7331V14.1619L14.6371 14.2396C13.8328 14.8839 12.8777 15.382 11.8038 15.7247C10.7345 16.0675 9.61947 16.2411 8.49072 16.2411C6.89585 16.2411 5.43808 15.8893 4.15397 15.1946C2.86528 14.5 1.84164 13.5221 1.1059 12.2928C0.370158 11.0635 0 9.66059 0 8.12057C0 6.58054 0.370158 5.1776 1.1059 3.94832C1.83707 2.71904 2.86985 1.7411 4.1631 1.04649C5.45636 0.351876 6.92784 0 8.53642 0C9.84339 0 11.0544 0.219351 12.1283 0.653484C13.2113 1.08762 14.1344 1.73653 14.8702 2.57738L15.0301 2.76017L12.8869 4.85315L12.7087 4.67492C11.5982 3.56446 10.2364 3.00237 8.66894 3.00237ZM27.9901 0.00891953C29.5849 0.00891953 31.0427 0.360796 32.3268 1.05541C33.6155 1.75002 34.6392 2.72796 35.3749 3.95724C36.1061 5.18652 36.4808 6.58946 36.4808 8.12948C36.4808 9.66951 36.1107 11.0724 35.3749 12.3017C34.6392 13.531 33.6155 14.5089 32.3268 15.2036C31.0473 15.8982 29.5849 16.2501 27.9901 16.2501C26.3952 16.2501 24.9374 15.8982 23.6533 15.2036C22.3646 14.5089 21.341 13.531 20.6053 12.2926C19.8695 11.0542 19.4994 9.6558 19.4994 8.12948C19.4994 6.60317 19.8695 5.2048 20.6053 3.96638C21.341 2.73253 22.3646 1.75002 23.6533 1.05541C24.9329 0.360796 26.3952 0.00891953 27.9901 0.00891953ZM30.6177 12.5988C31.39 12.1646 32.007 11.5477 32.4457 10.7708C32.8889 9.9894 33.1129 9.10286 33.1129 8.12948C33.1129 7.15611 32.8889 6.26957 32.4457 5.48813C32.0024 4.71126 31.39 4.09434 30.6177 3.6602C29.8454 3.2215 28.9589 3.00215 27.9901 3.00215C27.0213 3.00215 26.1347 3.22607 25.3624 3.6602C24.5901 4.09434 23.9778 4.71126 23.5345 5.48813C23.0912 6.26957 22.8673 7.15611 22.8673 8.12948C22.8673 9.10286 23.0912 9.9894 23.5345 10.7708C23.9778 11.5477 24.5901 12.1646 25.3624 12.5988C26.1347 13.0375 27.0213 13.2568 27.9901 13.2568C28.9589 13.2568 29.8409 13.0329 30.6177 12.5988ZM44.9578 0.224022H41.6081V16.031H52.9595V13.12H44.9578V0.224022ZM68.9996 0.224022V3.11672H60.6734V7.26154H68.0628V10.1771H60.6734V16.031H57.3238V0.224022H68.9996Z" fill="white"/>
</svg>
