<svg width="126" height="30" viewBox="0 0 126 30" fill="none" xmlns="http://www.w3.org/2000/svg">
<path fill-rule="evenodd" clip-rule="evenodd" d="M15.8293 5.4868C13.9435 5.4868 12.2496 5.88767 10.7976 6.67269L10.806 6.65599C9.35405 7.44101 8.21087 8.54339 7.39312 9.95476C6.57537 11.3661 6.15815 13.0531 6.15815 14.8319C6.15815 16.6107 6.57537 18.2225 7.39312 19.6339C8.21087 21.0453 9.35405 22.1644 10.806 22.9744C12.2579 23.7845 13.9351 24.1937 15.7876 24.1937C17.7735 24.1937 19.5509 23.7762 21.0696 22.9494V18.2977H15.4454V12.9946H26.8939V14.0552H26.9023V25.8807L26.7271 26.0227C25.2584 27.2002 23.5145 28.1105 21.5535 28.7368C19.601 29.3632 17.5649 29.6805 15.5039 29.6805C12.5917 29.6805 9.92981 29.0375 7.58504 27.7681C5.23193 26.4987 3.36279 24.7115 2.01934 22.465C0.675895 20.2185 0 17.6547 0 14.8403C0 12.0259 0.675895 9.46202 2.01934 7.21552C3.35444 4.96902 5.24027 3.18185 7.60173 1.91245C9.96319 0.643051 12.6501 0 15.5873 0C17.9738 0 20.1851 0.400863 22.146 1.19424C24.1236 1.98761 25.8092 3.17349 27.1526 4.71013L27.4447 5.04419L23.5312 8.86908L23.2057 8.54338C21.178 6.51402 18.6914 5.4868 15.8293 5.4868ZM51.1093 0.00815856C54.0215 0.00815856 56.6833 0.651209 59.0281 1.92061C61.3812 3.19 63.2503 4.97718 64.5938 7.22368C65.9289 9.47018 66.6131 12.034 66.6131 14.8484C66.6131 17.6628 65.9372 20.2267 64.5938 22.4732C63.2503 24.7197 61.3812 26.5068 59.0281 27.7762C56.6917 29.0456 54.0215 29.6887 51.1093 29.6887C48.1971 29.6887 45.5352 29.0456 43.1905 27.7762C40.8373 26.5068 38.9682 24.7197 37.6247 22.4564C36.2813 20.1932 35.6054 17.6378 35.6054 14.8484C35.6054 12.0591 36.2813 9.50359 37.6247 7.24039C38.9682 4.98554 40.8373 3.19 43.1905 1.92061C45.5269 0.651209 48.1971 0.00815856 51.1093 0.00815856ZM55.9073 23.016C57.3175 22.2226 58.444 21.0952 59.245 19.6755C60.0544 18.2474 60.4633 16.6272 60.4633 14.8484C60.4633 13.0696 60.0544 11.4494 59.245 10.0214C58.4356 8.60164 57.3175 7.47422 55.9073 6.68085C54.4971 5.87912 52.8783 5.47826 51.1093 5.47826C49.3403 5.47826 47.7215 5.88747 46.3112 6.68085C44.901 7.47422 43.7829 8.60164 42.9735 10.0214C42.1641 11.4494 41.7552 13.0696 41.7552 14.8484C41.7552 16.6272 42.1641 18.2474 42.9735 19.6755C43.7829 21.0952 44.901 22.2226 46.3112 23.016C47.7215 23.8177 49.3403 24.2186 51.1093 24.2186C52.8783 24.2186 54.4887 23.8094 55.9073 23.016ZM82.1004 0.40941H75.984V29.2966H96.7031V23.9768H82.1004V0.40941ZM126 0.40941V5.68743H110.797V13.2704H124.281V18.5902H110.797V29.2966H104.68V0.40941H126Z" fill="black"/>
</svg>
