<svg width="8" height="27" viewBox="0 0 8 27" fill="none" xmlns="http://www.w3.org/2000/svg">
<path fill-rule="evenodd" clip-rule="evenodd" d="M7.93599 0H0V1.28572H7.93599V0ZM7.93599 25.7147H0V27.0005H7.93599V25.7147ZM2.64541 5.1426H7.93608V6.42831H2.64541V5.1426ZM7.93608 18H2.64541V19.2857H7.93608V18ZM0 12.8574H7.93599V14.1431H0V12.8574ZM7.93608 2.5713H2.64541V3.85702H7.93608V2.5713ZM2.64541 15.4287H7.93608V16.7144H2.64541V15.4287ZM7.93608 7.71389H2.64541V8.99961H7.93608V7.71389ZM2.64541 20.5713H7.93608V21.857H2.64541V20.5713ZM7.93608 10.2861H2.64541V11.5718H7.93608V10.2861ZM2.64541 23.1426H7.93608V24.4283H2.64541V23.1426Z" fill="black"/>
</svg>
