<svg width="72" height="72" viewBox="0 0 72 72" fill="none" xmlns="http://www.w3.org/2000/svg">
<path d="M35.9998 14.5915C38.0521 12.2663 41.0547 10.7998 44.3998 10.7998C50.5854 10.7998 55.5998 15.8142 55.5998 21.9998C55.5998 28.1854 50.5854 33.1998 44.3998 33.1998C41.0547 33.1998 38.0521 31.7333 35.9998 29.4081M44.3998 61.1998H10.7998V58.3998C10.7998 49.1214 18.3214 41.5998 27.5998 41.5998C36.8782 41.5998 44.3998 49.1214 44.3998 58.3998V61.1998ZM44.3998 61.1998H61.1998V58.3998C61.1998 49.1214 53.6782 41.5998 44.3998 41.5998C41.3398 41.5998 38.4709 42.4179 35.9998 43.8473M38.7998 21.9998C38.7998 28.1854 33.7854 33.1998 27.5998 33.1998C21.4142 33.1998 16.3998 28.1854 16.3998 21.9998C16.3998 15.8142 21.4142 10.7998 27.5998 10.7998C33.7854 10.7998 38.7998 15.8142 38.7998 21.9998Z" stroke="white" stroke-width="1.67" stroke-linecap="round" stroke-linejoin="round"/>
</svg>
