<svg width="72" height="72" viewBox="0 0 72 72" fill="none" xmlns="http://www.w3.org/2000/svg">
<path d="M61.1998 35.9998C61.1998 49.9174 49.9174 61.1998 35.9998 61.1998M61.1998 35.9998C61.1998 22.0822 49.9174 10.7998 35.9998 10.7998M61.1998 35.9998H10.7998M35.9998 61.1998C22.0822 61.1998 10.7998 49.9174 10.7998 35.9998M35.9998 61.1998C40.639 61.1998 44.3998 49.9174 44.3998 35.9998C44.3998 22.0822 40.639 10.7998 35.9998 10.7998M35.9998 61.1998C31.3606 61.1998 27.5998 49.9174 27.5998 35.9998C27.5998 22.0822 31.3606 10.7998 35.9998 10.7998M10.7998 35.9998C10.7998 22.0822 22.0822 10.7998 35.9998 10.7998" stroke="white" stroke-width="1.67" stroke-linecap="round" stroke-linejoin="round"/>
</svg>
