<svg width="72" height="72" viewBox="0 0 72 72" fill="none" xmlns="http://www.w3.org/2000/svg">
<path d="M10.7998 27.6001C10.7998 24.5073 13.307 22.0001 16.3998 22.0001H19.0028C20.8752 22.0001 22.6236 21.0643 23.6623 19.5064L25.9374 16.0938C26.976 14.5359 28.7245 13.6001 30.5968 13.6001H41.4028C43.2752 13.6001 45.0237 14.5359 46.0623 16.0938L48.3374 19.5064C49.376 21.0643 51.1245 22.0001 52.9968 22.0001H55.5998C58.6926 22.0001 61.1998 24.5073 61.1998 27.6001V52.8001C61.1998 55.8929 58.6926 58.4001 55.5998 58.4001H16.3998C13.307 58.4001 10.7998 55.8929 10.7998 52.8001V27.6001Z" stroke="white" stroke-width="1.67" stroke-linecap="round" stroke-linejoin="round"/>
<path d="M44.3998 38.8001C44.3998 43.4393 40.639 47.2001 35.9998 47.2001C31.3606 47.2001 27.5998 43.4393 27.5998 38.8001C27.5998 34.1609 31.3606 30.4001 35.9998 30.4001C40.639 30.4001 44.3998 34.1609 44.3998 38.8001Z" stroke="white" stroke-width="1.67" stroke-linecap="round" stroke-linejoin="round"/>
</svg>
