<svg width="5" height="5" viewBox="0 0 5 5" fill="none" xmlns="http://www.w3.org/2000/svg">
<path d="M4.97464 2.49241C4.98481 3.86577 3.88103 4.9899 2.50766 5.00007C1.1343 5.01025 0.0101731 3.90647 0 2.5331C0 2.51784 0 2.50258 0 2.48732C0 2.12109 0.0762977 1.76503 0.233981 1.43441C0.391663 1.10378 0.61547 0.808761 0.900317 0.579866C1.33267 0.203462 1.88711 0 2.46189 0C2.81795 0 3.174 0.0712116 3.50463 0.218721C3.94207 0.41201 4.31339 0.727376 4.5728 1.1343C4.8373 1.53614 4.97973 2.00919 4.97973 2.49241H4.97464ZM2.46697 0.361145C1.91254 0.356058 1.38354 0.584953 1.00714 0.98679C0.610385 1.38354 0.386577 1.92271 0.39675 2.48223C0.386577 3.04684 0.610385 3.59619 1.00714 3.99802C1.79555 4.81187 3.09262 4.8373 3.90646 4.04889C3.92172 4.03363 3.93698 4.01837 3.95733 3.99802C4.35408 3.59619 4.57789 3.04684 4.56772 2.48223C4.56263 2.14144 4.48124 1.80572 4.32865 1.50053C4.18623 1.20042 3.9675 0.941011 3.703 0.747722C3.34186 0.488308 2.91459 0.350972 2.47206 0.356058L2.46697 0.361145ZM2.72639 2.73147L3.66231 3.9319H2.99089L2.13635 2.79251V3.9319H1.587V1.058H2.16178C2.47206 1.03257 2.77725 1.10887 3.04175 1.27164C3.24013 1.42423 3.35712 1.66839 3.35203 1.92271C3.35203 2.10074 3.29608 2.27877 3.18926 2.4212C3.08753 2.56362 2.94002 2.67044 2.77217 2.71621L2.73147 2.73147H2.72639ZM2.13635 2.33472H2.22791C2.61957 2.33472 2.81794 2.19739 2.81794 1.9278C2.81794 1.67347 2.62974 1.54631 2.24825 1.54631H2.13635V2.33472Z" fill="white"/>
</svg>
