<svg width="152" height="36" viewBox="0 0 152 36" fill="none" xmlns="http://www.w3.org/2000/svg">
<path fill-rule="evenodd" clip-rule="evenodd" d="M3.97463 0H0V5.11545H1.31561C5.26245 5.11545 5.92025 7.15983 5.92025 8.69987C5.92025 10.2399 4.60464 12.1492 1.31561 12.1492H0V16.6252L6.57806 26.8561H15.7873L7.08763 15.8687C8.74604 15.5085 9.654 15.0672 10.6083 14.2566C12.1833 12.9327 13.1561 10.8703 13.1561 8.2946C13.1561 5.12446 11.1827 0 3.97463 0ZM108.733 17.6699C108.705 19.9665 110.595 21.8577 112.957 21.8848C115.32 21.9118 117.266 20.0745 117.293 17.778C117.321 15.4814 115.431 13.5902 113.069 13.5632H112.985C110.65 13.5722 108.76 15.4004 108.723 17.6699H108.733ZM123.714 0V26.8381H117.09V24.8298C115.644 26.64 113.828 27.4415 111.299 27.4415C105.953 27.4415 101.821 23.1816 101.821 17.6699C101.821 12.1582 105.916 8.01541 111.262 8.01541C113.467 7.93435 115.598 8.80794 117.09 10.393V0H123.714ZM88.9058 21.8123C86.534 21.8033 84.6347 19.9211 84.6439 17.6245C84.6717 15.346 86.5617 13.5087 88.9058 13.4817H88.9521C91.3239 13.4907 93.2232 15.373 93.2139 17.6695C93.2047 19.9751 91.2683 21.8213 88.9058 21.8123ZM88.8224 27.5222C95.5301 27.5222 100.209 23.5055 100.209 17.7056C100.209 11.9957 95.5301 7.93397 88.9058 7.93397C85.8854 7.93397 82.9021 8.88861 81.0399 10.4647C78.909 12.2389 77.6767 14.8146 77.6489 17.5434C77.6489 23.4154 82.1146 27.5222 88.8224 27.5222ZM73.6836 13.3202L73.6766 13.3166L75.8979 9.15035C73.9893 8.33981 71.9325 7.93453 69.8572 7.97956C64.6874 7.97956 61.5003 10.5103 61.5003 14.572C61.5003 17.4269 63.029 18.8409 67.0036 19.6424C69.2457 20.1288 69.8201 20.444 69.8201 21.2905C69.8201 22.1371 68.9585 22.7405 67.7541 22.7405C66.2346 22.7405 64.2056 22.011 62.4638 20.8853L60.0642 25.4333C62.3063 26.7843 64.9005 27.5137 67.5503 27.5227C72.9702 27.5227 76.4908 24.8299 76.4908 20.6871C76.4908 17.7421 74.7491 16.013 71.0338 15.2925C68.5416 14.7701 68.0506 14.527 68.0506 13.7254C68.0506 12.9959 68.8751 12.4376 70.0796 12.4376C71.3369 12.4555 72.5666 12.7515 73.6766 13.3166L73.6651 13.3382L73.6836 13.3202ZM48.9278 21.8935C46.5653 21.8754 44.6567 20.0022 44.666 17.7056H44.6753C44.6938 15.4271 46.5931 13.5808 48.9371 13.5628H48.9742C51.3367 13.5808 53.2545 15.4541 53.236 17.7507C53.2175 20.0472 51.2904 21.9025 48.9278 21.8935ZM38.264 8.60949V35.4566L38.2732 35.4476H44.8976V25.0546C46.3893 26.6397 48.5202 27.5132 50.7252 27.4322C56.0618 27.4322 60.1569 23.2804 60.1569 17.7777C60.1569 12.275 56.0247 8.00608 50.6789 8.00608C48.1588 8.00608 46.3337 8.80762 44.8883 10.6178V8.60949H38.264ZM25.0615 21.894C22.699 21.858 20.7997 19.9667 20.8367 17.6702C20.8738 15.4006 22.7638 13.5724 25.0986 13.5634H25.1819C27.5445 13.5994 29.4438 15.4907 29.4067 17.7873C29.3697 20.0838 27.424 21.93 25.0615 21.894ZM35.818 26.8384V8.62807H29.2029V10.3933C27.7113 8.8082 25.5711 7.93461 23.366 8.01566C18.0202 8.01566 13.9251 12.1585 13.9251 17.6702C13.9251 23.1819 18.0665 27.4418 23.4031 27.4418C25.9231 27.4418 27.7391 26.6402 29.1936 24.83V26.8384H35.818ZM136.675 21.8033C134.304 21.7943 132.404 19.9211 132.414 17.6245C132.441 15.346 134.331 13.4997 136.675 13.4817H136.713C139.084 13.4907 140.984 15.364 140.974 17.6605C140.965 19.9661 139.038 21.8123 136.675 21.8033ZM136.583 27.5222C143.291 27.5222 147.969 23.5055 147.969 17.7056H147.96C147.96 11.9957 143.291 7.93397 136.666 7.93397C133.646 7.93397 130.663 8.88861 128.8 10.4647C126.669 12.2389 125.437 14.8146 125.409 17.5434C125.409 23.4154 129.875 27.5222 136.583 27.5222ZM149.533 4.84374C150.904 4.83282 152.005 3.74612 151.994 2.41368L152 2.40822C152 1.93859 151.859 1.48534 151.595 1.09216C151.342 0.704444 150.971 0.393178 150.533 0.207511C150.207 0.0655298 149.854 0 149.494 0C148.921 0 148.37 0.196589 147.932 0.557003C147.651 0.780896 147.427 1.06486 147.269 1.38705C147.106 1.70377 147.033 2.05326 147.033 2.40822V2.4519C147.045 3.78434 148.163 4.85466 149.533 4.84374ZM148.045 0.955642C148.421 0.562463 148.949 0.344031 149.5 0.349492L149.505 0.344031C149.949 0.33857 150.376 0.46963 150.736 0.720827C151 0.911955 151.219 1.16315 151.359 1.45258C151.511 1.74746 151.595 2.07511 151.595 2.40276C151.606 2.9543 151.387 3.484 150.988 3.87171L150.938 3.92086C150.123 4.68537 148.831 4.66353 148.045 3.87171C147.646 3.484 147.427 2.9543 147.438 2.40276C147.427 1.86214 147.646 1.3379 148.045 0.955642ZM150.691 3.80618L149.758 2.64303L149.769 2.64849L149.809 2.63757C149.977 2.58842 150.123 2.48467 150.224 2.34815C150.331 2.20617 150.387 2.03688 150.387 1.86214C150.393 1.6164 150.281 1.38158 150.078 1.23414C149.814 1.07578 149.511 1.00479 149.202 1.02663H148.629V3.80618H149.174V2.7031L150.022 3.80618H150.691ZM149.258 2.25531H149.168V1.49626H149.281C149.657 1.49626 149.848 1.6164 149.848 1.86214C149.848 2.12425 149.651 2.25531 149.258 2.25531Z" fill="black"/>
</svg>
